<?xml version="1.0" encoding="UTF-8" standalone="no"?>
<svg width="408px" height="512px" viewBox="0 0 408 512" version="1.1" xmlns="http://www.w3.org/2000/svg" xmlns:xlink="http://www.w3.org/1999/xlink">
    <!-- Generator: Sketch 41 (35326) - http://www.bohemiancoding.com/sketch -->
    <title>shield</title>
    <desc>Created with Sketch.</desc>
    <defs></defs>
    <g id="Page-1" stroke="none" stroke-width="1" fill="none" fill-rule="evenodd">
        <g id="shield" fill="#000000">
            <path d="M401.013,7.231 C396.68,2.636 390.574,0 384.258,0 L23.743,0 C17.427,0 11.321,2.636 6.987,7.231 C2.655,11.825 0.383,18.076 0.754,24.382 L22.307,390.398 C22.744,397.8 26.75,404.579 33.024,408.53 L191.73,508.48 C195.457,510.827 199.729,512 204,512 C208.272,512 212.544,510.826 216.271,508.479 L374.976,408.528 C381.251,404.577 385.256,397.799 385.693,390.396 L407.246,24.381 C407.617,18.077 405.346,11.825 401.013,7.231 Z M365.33,389.198 C365.28,390.043 364.823,390.817 364.107,391.268 L205.403,491.219 C204.552,491.754 203.451,491.754 202.6,491.219 L43.894,391.267 C43.178,390.816 42.721,390.042 42.671,389.197 L21.119,23.183 C21.064,22.247 21.476,21.603 21.831,21.226 C22.186,20.849 22.806,20.4 23.743,20.4 L384.258,20.4 C385.195,20.4 385.817,20.85 386.171,21.226 C386.526,21.602 386.937,22.247 386.882,23.183 L365.33,389.198 Z" id="Shape"></path>
            <path d="M347.607,57.938 C345.68,55.906 343.004,54.756 340.204,54.756 L67.795,54.756 C64.995,54.756 62.319,55.907 60.392,57.938 C58.466,59.97 57.461,62.704 57.61,65.5 L73.588,364.023 C73.765,367.33 75.536,370.345 78.338,372.109 L198.565,447.827 C200.225,448.872 202.112,449.396 204,449.396 C205.888,449.396 207.775,448.873 209.434,447.827 L329.661,372.109 C332.463,370.343 334.234,367.329 334.411,364.023 L350.389,65.5 C350.539,62.704 349.532,59.97 347.607,57.938 Z M314.324,357.66 L204,427.141 L93.676,357.66 L78.556,75.154 L329.445,75.154 L314.324,357.66 Z" id="Shape"></path>
            <path d="M218.73,91.934 L108.255,91.934 C102.622,91.934 98.055,96.501 98.055,102.134 C98.055,107.766 102.621,112.334 108.255,112.334 L218.731,112.334 C224.364,112.334 228.93,107.767 228.93,102.134 C228.93,96.502 224.364,91.934 218.73,91.934 Z" id="Shape"></path>
            <path d="M266.533,91.934 L254.848,91.934 C249.215,91.934 244.648,96.501 244.648,102.134 C244.648,107.766 249.214,112.334 254.848,112.334 L266.533,112.334 C272.166,112.334 276.733,107.767 276.733,102.134 C276.733,96.502 272.166,91.934 266.533,91.934 Z" id="Shape"></path>
            <path d="M210.292,234.303 L210.292,174.582 C229.413,175.63 236.747,184.274 242.247,184.274 C248.272,184.274 251.677,176.416 251.677,172.225 C251.677,161.749 228.889,155.724 210.292,154.938 L210.292,147.604 C210.292,144.723 206.887,142.103 203.482,142.103 C199.553,142.103 196.672,144.723 196.672,147.604 L196.672,155.462 C173.098,157.558 148.215,169.084 148.215,202.087 C148.215,235.614 173.361,244.258 196.672,252.378 L196.672,322.053 C166.812,320.743 160.526,301.098 153.191,301.098 C148.216,301.098 143.5,307.907 143.5,313.147 C143.5,324.148 163.93,342.221 196.672,342.745 L196.672,342.745 L196.672,351.387 C196.672,354.269 199.553,356.888 203.482,356.888 C206.888,356.888 210.292,354.269 210.292,351.387 L210.292,341.957 C237.533,338.29 256.392,321.265 256.392,289.309 C256.392,253.424 232.557,242.423 210.292,234.303 Z M197.719,229.853 C182.266,224.089 169.168,218.065 169.168,199.992 C169.168,183.229 182.003,176.419 197.719,174.847 L197.719,229.853 Z M209.244,321.528 L209.244,257.354 C223.651,263.38 235.438,271.5 235.438,291.405 C235.437,308.693 225.746,318.909 209.244,321.528 Z" id="Shape"></path>
        </g>
    </g>
</svg>