<?xml version="1.0" encoding="UTF-8" standalone="no"?>
<svg width="406px" height="513px" viewBox="0 0 406 513" version="1.1" xmlns="http://www.w3.org/2000/svg" xmlns:xlink="http://www.w3.org/1999/xlink">
    <!-- Generator: Sketch 41 (35326) - http://www.bohemiancoding.com/sketch -->
    <title>222</title>
    <desc>Created with Sketch.</desc>
    <defs></defs>
    <g id="Page-1" stroke="none" stroke-width="1" fill="none" fill-rule="evenodd">
        <g id="222" fill="#000000">
            <g id="Слой_1_Зображення">
                <path d="M405.97,430.5 L405.97,435.5 C402.55,443.11 398.4,445.03 390.2,442.83 L314.81,422.61 C313.15,422.16 311.47,421.78 309.66,421.33 C309.4,422.14 309.18,422.75 309.01,423.38 C302.01,449.47 294.94,475.54 288.1,501.67 C286.79,506.67 284.44,510.3 279.47,512 L274.47,512 C271.411374,510.884677 268.837077,508.738251 267.19,505.93 C250.063333,476.156667 232.906667,446.406667 215.72,416.68 L203.25,395.09 C202.72,395.94 202.3,396.55 201.94,397.19 C181.326667,432.923333 160.733333,468.666667 140.16,504.42 C138.16,507.89 135.81,510.64 132.01,512.01 L127.01,512.01 C122.5,510.43 119.86,507.34 118.63,502.65 C113,481.17 107.21,459.74 101.46,438.29 C99.96,432.69 98.46,427.09 96.87,421.29 C95.94,421.52 95.23,421.68 94.52,421.86 L14.94,443.15 C9.74,444.54 5.46,443.31 2.59,439.59 C-0.28,435.87 -0.28,431.35 2.26,426.94 C15.3266667,404.313333 28.3966667,381.69 41.47,359.07 L62.47,322.7 C61.27,321.34 60.09,320.06 58.97,318.7 C17.84,270.33 2.89,214.79 15.29,152.58 C24.29,107.58 47.67,70.76 83.4,42 C110.987543,19.6269708 144.362815,5.55067935 179.64,1.41 C183.58,0.92 187.53,0.47 191.47,-3.10862447e-14 L214.97,-3.10862447e-14 C215.592274,0.175395854 216.223094,0.318915893 216.86,0.43 C223.54,1.27 230.29,1.79 236.86,2.98 C279.17,10.58 315.2,30.09 344.15,61.76 C382.26,103.44 399.02,152.82 394.46,209.19 C391.977452,240.79728 381.348844,271.222317 363.61,297.5 C357.71,306.33 350.89,314.55 344.32,323.27 C344.32,323.36 344.68,323.95 345.01,324.52 C357.456667,346.066667 369.9,367.61 382.34,389.15 C390.26,402.9 398.1,416.71 405.97,430.5 Z M373.89,192.02 C373.89,98.49 297.46,21.75 204.56,21.34 C111.01,20.93 34.36,95.65 32.56,188.6 C30.73,285.01 108.64,362.41 202.49,362.6 C297.25,362.7 373.89,286.33 373.89,192.02 Z M221.23,383.26 L273.28,473.38 C273.63,472.23 273.82,471.68 273.97,471.12 C279.756667,449.593333 285.543333,428.07 291.33,406.55 C293.33,398.98 298.5,396.02 306.08,398.05 L368.5,414.77 C369.75,415.11 371.03,415.38 372.92,415.83 L328,338.05 C297.03,364.02 261.72,379.11 221.23,383.26 Z M185.09,383.26 C144.72,379.1 109.38,364.01 78.45,338.04 L33.45,415.9 L36.2,415.2 C57.82,409.426667 79.4366667,403.653333 101.05,397.88 C107.63,396.13 113.19,399.33 114.92,405.79 C119.8,424.03 124.68,442.27 129.56,460.51 C130.66,464.63 131.81,468.74 133.08,473.4 L185.09,383.26 Z" id="Shape"></path>
                <path d="M209.25,341.41 C207.09,341.41 204.92,341.48 202.76,341.41 C196.984754,341.178276 192.433003,336.409774 192.47,330.63 C192.438011,327.845331 193.515674,325.162438 195.465064,323.173648 C197.414454,321.184857 200.075248,320.053732 202.86,320.03 C230.11,319.76 255.05,312.15 277.28,296.31 C302.28,278.49 318.73,254.62 326.91,225.04 C328.72,218.5 334.22,215.04 340.28,216.64 C346.34,218.24 349.35,224.13 347.62,230.64 C332.670289,286.733352 286.503035,329.037074 229.32,339.04 C222.69,340.19 215.97,340.77 209.32,341.62 L209.25,341.41 Z" id="Shape"></path>
                <path d="M213.97,53.37 C213.97,59.72 209.19,64.02 202.09,64.08 C187.978959,64.0624061 173.975079,66.530095 160.72,71.37 C119.026667,86.95 91.9566667,116.146667 79.51,158.96 C77.61,165.48 72.2,168.96 66.13,167.38 C60.06,165.8 57.03,159.89 58.77,153.38 C73.8514893,96.7473387 120.731242,54.215479 178.56,44.7 C186.713609,43.5508181 194.927839,42.8829945 203.16,42.7 C206.031124,42.6032632 208.815663,43.691621 210.860203,45.709682 C212.904743,47.727743 214.029304,50.4978586 213.97,53.37 L213.97,53.37 Z" id="Shape"></path>
                <path d="M75.3,188.85 C75.21,190.51 75.3,192.18 75.02,193.85 C74.2042437,199.080242 69.642152,202.898375 64.35,202.78 C59.0169378,202.815157 54.5250571,198.803159 53.96,193.5 C53.6638469,190.277248 53.7141344,187.032029 54.11,183.82 C54.81,178.48 59.94,174.67 65.4,175.05 C70.8676008,175.432468 75.1739508,179.863702 75.4,185.34 C75.46,186.5 75.4,187.66 75.4,188.82 L75.3,188.85 Z" id="Shape"></path>
                <path d="M331.24,194.99 C331.24,193.74 331.16,192.49 331.24,191.25 C331.580119,185.680818 336.160859,181.318209 341.74,181.25 C347.328115,181.051917 352.074541,185.303831 352.49,190.88 C352.765719,194.021794 352.691934,197.184482 352.27,200.31 C351.310743,205.622951 346.482105,209.344936 341.1,208.92 C335.631762,208.587913 331.295682,204.182801 331.05,198.71 C330.98,197.47 331.05,196.23 331.05,194.98 L331.24,194.99 Z" id="Shape"></path>
            </g>
            <g id="_3" transform="translate(150.000000, 116.000000)">
                <path d="M0.262414412,147.016635 L0.262414412,119.899264 C6.10522333,122.855038 12.5322167,125.260864 19.5435874,127.116815 C26.5549581,128.972766 33.4974858,129.900728 40.3713786,129.900728 C50.8884346,129.900728 58.655817,128.113542 63.6737588,124.539118 C68.6917006,120.964694 71.2006338,115.225079 71.2006338,107.320103 C71.2006338,100.239993 68.3136422,95.2221264 62.5395722,92.2663525 C56.7655022,89.3105786 47.5546239,87.8327138 34.9066611,87.8327138 L23.4616868,87.8327138 L23.4616868,63.3961469 L35.1128769,63.3961469 C46.7984947,63.3961469 55.3391784,61.8667287 60.7351843,58.8078464 C66.1311902,55.7489641 68.8291527,50.5076994 68.8291527,43.0838952 C68.8291527,31.673233 61.6804113,25.9679876 47.3827142,25.9679876 C42.4335114,25.9679876 37.3984604,26.7928423 32.2774102,28.4425766 C27.1563601,30.0923109 21.4682991,32.9449336 15.2130566,37.0005304 L0.468630166,15.0385526 C14.2164158,5.1401469 30.6104044,0.191018297 49.6510875,0.191018297 C65.2548243,0.191018297 77.5760924,3.35296157 86.6152615,9.67694299 C95.6544305,16.0009244 100.173947,24.7993753 100.173947,36.0725595 C100.173947,45.4897927 97.3213246,53.4977578 91.6159935,60.0966949 C85.9106624,66.695632 77.9026974,71.2323332 67.5918581,73.7069347 L67.5918581,74.3255819 C79.7586485,75.8378383 88.9695267,79.5325003 95.2247692,85.4096787 C101.480012,91.2868571 104.607586,99.2088997 104.607586,109.176044 C104.607586,123.679958 99.3491369,134.970158 88.8320808,143.046982 C78.3150248,151.123806 63.2957942,155.162158 43.7739385,155.162158 C27.4140736,155.162158 12.9103772,152.447011 0.262414412,147.016635 Z" id="3"></path>
            </g>
        </g>
    </g>
</svg>