<?xml version="1.0" encoding="UTF-8" standalone="no"?>
<svg width="342px" height="512px" viewBox="0 0 342 512" version="1.1" xmlns="http://www.w3.org/2000/svg" xmlns:xlink="http://www.w3.org/1999/xlink">
    <!-- Generator: Sketch 41 (35326) - http://www.bohemiancoding.com/sketch -->
    <title>padlock</title>
    <desc>Created with Sketch.</desc>
    <defs></defs>
    <g id="Page-1" stroke="none" stroke-width="1" fill="none" fill-rule="evenodd">
        <g id="padlock" fill="#000000">
            <path d="M331.616,217.384 L315.139,217.384 L315.139,144.139 C315.139,64.66 250.479,0 170.999,0 C91.519,0 26.86,64.66 26.86,144.139 L26.86,217.384 L10.383,217.384 C4.751,217.384 0.184,221.95 0.184,227.583 L0.184,421.289 C0.184,471.307 40.876,511.999 90.894,511.999 L251.105,511.999 C301.123,511.999 341.815,471.307 341.815,421.289 L341.815,227.583 C341.815,221.95 337.249,217.384 331.616,217.384 Z M47.259,144.139 C47.259,75.908 102.769,20.398 171,20.398 C239.231,20.398 294.74,75.909 294.74,144.139 L294.74,217.384 L281.312,217.384 L281.312,144.217 C281.312,83.39 231.825,33.903 171,33.903 C110.174,33.903 60.687,83.39 60.687,144.217 L60.687,217.384 L47.259,217.384 L47.259,144.139 L47.259,144.139 Z M260.914,144.217 L260.914,217.384 L81.085,217.384 L81.085,144.217 C81.085,94.638 121.421,54.302 170.999,54.302 C220.577,54.302 260.914,94.637 260.914,144.217 Z M321.416,421.289 C321.416,460.059 289.874,491.6 251.105,491.6 L90.894,491.6 C52.124,491.6 20.583,460.058 20.583,421.289 L20.583,237.782 L321.417,237.782 L321.417,421.289 L321.416,421.289 Z" id="Shape"></path>
            <path d="M170.999,296.157 C149.431,296.157 131.882,313.705 131.882,335.274 C131.882,346.939 137.185,358.002 146.028,365.372 L146.028,414.051 C146.028,419.684 150.595,424.25 156.227,424.25 L185.769,424.25 C191.401,424.25 195.968,419.684 195.968,414.051 L195.968,365.372 C204.812,358.002 210.114,346.939 210.114,335.274 C210.116,313.705 192.568,296.157 170.999,296.157 Z M180.552,351.372 C177.464,353.211 175.571,356.54 175.571,360.135 L175.571,403.851 L166.427,403.851 L166.427,360.135 C166.427,356.541 164.535,353.211 161.446,351.372 C155.707,347.954 152.281,341.937 152.281,335.275 C152.281,324.953 160.678,316.556 171,316.556 C181.322,316.556 189.719,324.953 189.719,335.275 C189.718,341.936 186.291,347.954 180.552,351.372 Z" id="Shape"></path>
            <path d="M148.066,247.296 L41.368,247.296 C35.736,247.296 31.169,251.862 31.169,257.495 C31.169,263.128 35.736,267.694 41.368,267.694 L148.065,267.694 C153.698,267.694 158.265,263.128 158.265,257.495 C158.265,251.862 153.698,247.296 148.066,247.296 Z" id="Shape"></path>
            <path d="M184.96,247.296 L177.98,247.296 C172.348,247.296 167.781,251.862 167.781,257.495 C167.781,263.128 172.347,267.694 177.98,267.694 L184.96,267.694 C190.592,267.694 195.159,263.128 195.159,257.495 C195.159,251.862 190.592,247.296 184.96,247.296 Z" id="Shape"></path>
        </g>
    </g>
</svg>