<?xml version="1.0" encoding="UTF-8" standalone="no"?>
<svg width="512px" height="342px" viewBox="0 0 512 342" version="1.1" xmlns="http://www.w3.org/2000/svg" xmlns:xlink="http://www.w3.org/1999/xlink">
    <!-- Generator: Sketch 41 (35326) - http://www.bohemiancoding.com/sketch -->
    <title>Group</title>
    <desc>Created with Sketch.</desc>
    <defs></defs>
    <g id="Page-1" stroke="none" stroke-width="1" fill="none" fill-rule="evenodd">
        <g id="quotes" fill="#000000">
            <g id="Group">
                <path d="M91.444,80.987 C91.444,53.269 97.414,26.583 108.538,1.584 C43.979,44.896 3.012,106.644 1.323,175.422 L0.043,176.828 L0.043,341.635 L212.72,341.635 L212.72,128.33 L97.414,128.33 C93.476,112.986 91.444,97.144 91.444,80.987 Z" id="Shape"></path>
                <path d="M395.742,128.33 C391.617,112.612 389.461,96.363 389.461,79.769 C389.461,52.082 395.492,25.396 406.586,0.366 C341.185,44.24 299.998,107.018 299.312,176.828 L299.281,176.828 L299.281,177.672 L299.281,178.672 L299.281,179.703 L299.281,341.635 L511.958,341.635 L511.958,128.33 L395.742,128.33 Z" id="Shape"></path>
            </g>
        </g>
    </g>
</svg>