<?xml version="1.0" encoding="UTF-8" standalone="no"?>
<svg width="512px" height="472px" viewBox="0 0 512 472" version="1.1" xmlns="http://www.w3.org/2000/svg" xmlns:xlink="http://www.w3.org/1999/xlink">
    <!-- Generator: Sketch 41 (35326) - http://www.bohemiancoding.com/sketch -->
    <title>set-square</title>
    <desc>Created with Sketch.</desc>
    <defs></defs>
    <g id="Page-1" stroke="none" stroke-width="1" fill="none" fill-rule="evenodd">
        <g id="set-square" fill="#000000">
            <path d="M385.838,22.607 L366.929,3.697 C365.017,1.785 362.422,0.71 359.717,0.71 C357.012,0.71 354.418,1.785 352.505,3.697 L310.971,45.231 L310.009,44.269 C308.097,42.357 305.502,41.282 302.797,41.282 C300.092,41.282 297.499,42.357 295.585,44.269 L287.126,52.728 L286.407,52.009 C280.495,46.095 272.634,42.84 264.273,42.84 C255.912,42.84 248.05,46.096 242.138,52.008 L183.93,110.216 C179.947,114.199 179.947,120.657 183.93,124.641 C185.922,126.632 188.532,127.628 191.142,127.628 C193.752,127.628 196.362,126.632 198.354,124.641 L256.562,66.433 C258.622,64.373 261.36,63.239 264.274,63.239 C267.186,63.239 269.924,64.373 271.986,66.433 L272.705,67.152 L55.295,284.559 C54.345,285.51 53.593,286.637 53.081,287.878 L28.268,347.95 C26.694,351.758 27.567,356.141 30.482,359.056 C32.433,361.007 35.042,362.042 37.697,362.042 C39.008,362.042 40.329,361.79 41.588,361.269 L101.66,336.456 C102.901,335.944 104.028,335.191 104.979,334.242 L345.268,93.953 C349.251,89.97 349.251,83.512 345.268,79.528 L344.305,78.565 L385.838,37.031 C389.821,33.049 389.821,26.591 385.838,22.607 Z M91.994,318.38 L56.496,333.042 L71.158,297.544 L302.796,65.907 L323.632,86.743 L91.994,318.38 Z M329.881,64.142 L325.395,59.656 L359.716,25.335 L364.202,29.821 L329.881,64.142 Z" id="Shape"></path>
            <path d="M506.555,115.251 C503.208,113.487 499.159,113.72 496.036,115.861 L4.435,452.678 C0.748,455.204 -0.864,459.839 0.457,464.108 C1.78,468.379 5.73,471.29 10.2,471.29 L501.801,471.29 C507.433,471.29 512,466.723 512,461.091 L512,124.274 C511.999,120.489 509.903,117.016 506.555,115.251 Z M491.601,450.892 L445.508,450.892 L445.508,441.471 C445.508,435.839 440.941,431.272 435.309,431.272 C429.677,431.272 425.11,435.839 425.11,441.471 L425.11,450.892 L341.23,450.892 L341.23,441.471 C341.23,435.839 336.663,431.272 331.031,431.272 C325.399,431.272 320.832,435.839 320.832,441.471 L320.832,450.892 L236.952,450.892 L236.952,441.471 C236.952,435.839 232.385,431.272 226.753,431.272 C221.121,431.272 216.554,435.839 216.554,441.471 L216.554,450.892 L132.674,450.892 L132.674,441.471 C132.674,435.839 128.107,431.272 122.475,431.272 C116.843,431.272 112.276,435.839 112.276,441.471 L112.276,450.892 L43.13,450.892 L491.6,143.625 L491.6,450.892 L491.601,450.892 Z" id="Shape"></path>
            <path d="M440.064,240.857 C436.715,239.094 432.667,239.326 429.543,241.467 L218.319,386.186 C214.632,388.713 213.02,393.347 214.341,397.617 C215.662,401.887 219.613,404.798 224.083,404.798 L435.308,404.798 C440.94,404.798 445.507,400.231 445.507,394.599 L445.507,249.881 C445.507,246.096 443.412,242.623 440.064,240.857 Z M425.108,384.4 L257.014,384.4 L425.108,269.232 L425.108,384.4 Z" id="Shape"></path>
            <path d="M473.242,177.733 C467.61,177.733 463.043,182.3 463.043,187.932 L463.043,248.107 C463.043,253.74 467.609,258.306 473.242,258.306 C478.874,258.306 483.441,253.739 483.441,248.107 L483.441,187.932 C483.441,182.3 478.874,177.733 473.242,177.733 Z" id="Shape"></path>
            <path d="M473.242,267.485 C467.61,267.485 463.043,272.052 463.043,277.684 L463.043,285.843 C463.043,291.476 467.609,296.042 473.242,296.042 C478.874,296.042 483.441,291.475 483.441,285.843 L483.441,277.684 C483.441,272.053 478.874,267.485 473.242,267.485 Z" id="Shape"></path>
        </g>
    </g>
</svg>