<?xml version="1.0" encoding="UTF-8" standalone="no"?>
<svg width="512px" height="328px" viewBox="0 0 512 328" version="1.1" xmlns="http://www.w3.org/2000/svg" xmlns:xlink="http://www.w3.org/1999/xlink">
    <!-- Generator: Sketch 41 (35326) - http://www.bohemiancoding.com/sketch -->
    <title>truck</title>
    <desc>Created with Sketch.</desc>
    <defs></defs>
    <g id="Page-1" stroke="none" stroke-width="1" fill="none" fill-rule="evenodd">
        <g id="truck" fill="#000000">
            <path d="M511.234,145.405 L466.802,37.356 C465.229,33.531 461.505,31.036 457.369,31.036 L341.22,31.036 L341.22,11.088 C341.22,5.456 336.654,0.889 331.021,0.889 L10.199,0.889 C4.566,0.888 0,5.455 0,11.087 L0,280.56 C0,286.192 4.566,290.759 10.199,290.759 L39.665,290.759 C44.329,311.536 62.913,327.112 85.078,327.112 C107.243,327.112 125.827,311.537 130.491,290.759 L362.804,290.759 C367.468,311.536 386.052,327.112 408.217,327.112 C430.382,327.112 448.966,311.537 453.63,290.759 L501.8,290.759 C507.433,290.759 511.999,286.192 511.999,280.56 L511.999,149.284 C512,147.953 511.74,146.635 511.234,145.405 Z M20.398,21.287 L320.822,21.287 L320.822,197.682 L20.398,197.682 L20.398,21.287 Z M85.079,306.713 C70.657,306.713 58.925,294.981 58.925,280.559 C58.925,266.137 70.657,254.404 85.079,254.404 C99.501,254.404 111.233,266.137 111.233,280.559 C111.233,294.981 99.499,306.713 85.079,306.713 Z M408.217,306.713 C393.795,306.713 382.063,294.981 382.063,280.559 C382.063,266.137 393.795,254.404 408.217,254.404 C422.639,254.404 434.372,266.137 434.372,280.559 C434.372,294.981 422.639,306.713 408.217,306.713 Z M491.602,185.536 L476.556,185.536 C470.923,185.536 466.357,190.103 466.357,195.735 C466.357,201.367 470.923,205.934 476.556,205.934 L491.602,205.934 L491.602,217.85 L476.556,217.85 C470.923,217.85 466.357,222.417 466.357,228.049 C466.357,233.681 470.923,238.248 476.556,238.248 L491.602,238.248 L491.602,270.36 L453.631,270.36 C448.967,249.582 430.383,234.006 408.217,234.006 C386.052,234.006 367.468,249.581 362.804,270.36 L130.492,270.36 C125.828,249.582 107.244,234.006 85.079,234.006 C62.914,234.006 44.33,249.581 39.666,270.36 L20.398,270.36 L20.398,218.08 L331.021,218.08 C336.654,218.08 341.22,213.513 341.22,207.881 L341.22,51.433 L450.535,51.433 L491.601,151.298 L491.601,185.536 L491.602,185.536 Z" id="Shape"></path>
            <path d="M475.833,148.298 L442.956,71.552 C441.35,67.801 437.662,65.368 433.581,65.368 L392.741,65.368 C387.108,65.368 382.542,69.935 382.542,75.567 L382.542,152.313 C382.542,157.945 387.108,162.512 392.741,162.512 L466.457,162.512 C469.886,162.512 473.085,160.79 474.972,157.929 C476.859,155.067 477.182,151.449 475.833,148.298 Z M402.941,142.115 L402.941,85.767 L426.854,85.767 L450.992,142.115 L402.941,142.115 Z" id="Shape"></path>
            <path d="M446.477,185.536 L443.353,185.536 C437.72,185.536 433.154,190.103 433.154,195.735 C433.154,201.367 437.72,205.934 443.353,205.934 L446.477,205.934 C452.11,205.934 456.676,201.367 456.676,195.735 C456.676,190.103 452.11,185.536 446.477,185.536 Z" id="Shape"></path>
            <path d="M250.54,106.852 L179.998,38.37 C176.041,34.527 169.747,34.527 165.79,38.37 L95.25,106.852 C92.271,109.745 91.342,114.155 92.902,118.003 C94.462,121.851 98.2,124.369 102.354,124.369 L112.815,124.369 L112.815,171.438 C112.815,177.07 117.381,181.637 123.014,181.637 L222.774,181.637 C228.407,181.637 232.973,177.07 232.973,171.438 L232.973,124.369 L243.435,124.369 C247.588,124.369 251.326,121.851 252.887,118.003 C254.449,114.155 253.521,109.744 250.54,106.852 Z M212.576,114.17 L212.576,161.239 L133.214,161.239 L133.214,114.17 C133.214,109.862 130.544,106.179 126.768,104.684 L172.895,59.904 L219.022,104.684 C215.246,106.179 212.576,109.862 212.576,114.17 Z" id="Shape"></path>
        </g>
    </g>
</svg>