<?xml version="1.0" encoding="UTF-8" standalone="no"?>
<svg width="512px" height="512px" viewBox="0 0 512 512" version="1.1" xmlns="http://www.w3.org/2000/svg" xmlns:xlink="http://www.w3.org/1999/xlink">
    <!-- Generator: Sketch 41 (35326) - http://www.bohemiancoding.com/sketch -->
    <title>wall</title>
    <desc>Created with Sketch.</desc>
    <defs></defs>
    <g id="Page-1" stroke="none" stroke-width="1" fill="none" fill-rule="evenodd">
        <g id="wall" fill="#000000">
            <path d="M501.801,245.801 L387.908,245.801 L387.908,134.629 C387.908,128.997 383.342,124.43 377.709,124.43 L266.539,124.43 L266.539,10.199 C266.539,4.567 261.973,0 256.34,0 L10.199,0 C4.566,0 0,4.567 0,10.199 L0,501.801 C0,507.433 4.566,512 10.199,512 L501.801,512 C507.434,512 512,507.433 512,501.801 L512,256 C512,250.368 507.434,245.801 501.801,245.801 Z M367.51,144.829 L367.51,245.801 L144.489,245.801 L144.489,144.829 L367.51,144.829 Z M20.398,20.398 L246.14,20.398 L246.14,124.43 L20.398,124.43 L20.398,20.398 Z M20.398,144.829 L124.09,144.829 L124.09,245.801 L20.398,245.801 L20.398,144.829 Z M20.398,266.199 L246.14,266.199 L246.14,367.851 L20.398,367.851 L20.398,266.199 Z M124.091,491.602 L20.398,491.602 L20.398,388.25 L124.09,388.25 L124.09,491.602 L124.091,491.602 Z M367.511,491.602 L144.489,491.602 L144.489,388.25 L367.511,388.25 L367.511,491.602 L367.511,491.602 Z M491.602,491.602 L387.909,491.602 L387.909,388.25 L421.227,388.25 C426.86,388.25 431.426,383.683 431.426,378.051 C431.426,372.419 426.86,367.852 421.227,367.852 L266.539,367.852 L266.539,266.199 L491.602,266.199 L491.602,491.602 Z" id="Shape"></path>
            <path d="M464.064,367.852 L457.944,367.852 C452.311,367.852 447.745,372.419 447.745,378.051 C447.745,383.683 452.311,388.25 457.944,388.25 L464.064,388.25 C469.697,388.25 474.263,383.683 474.263,378.051 C474.263,372.419 469.697,367.852 464.064,367.852 Z" id="Shape"></path>
        </g>
    </g>
</svg>